# This file uses centimeters as units for non-parametric coordinates.

mtllib ana.mtl
g default
v -2.500000 -2.500000 2.500000
v 2.500000 -2.500000 2.500000
v -2.500000 2.500000 2.500000
v 2.500000 2.500000 2.500000
v -2.500000 2.500000 -2.500000
v 2.500000 2.500000 -2.500000
v -2.500000 -2.500000 -2.500000
v 2.500000 -2.500000 -2.500000
vt 0.143421 0.029567
vt 0.244814 0.029567
vt 0.143421 0.130960
vt 0.244814 0.130960
vt 0.143421 0.232353
vt 0.244814 0.232353
vt 0.143421 0.333746
vt 0.244814 0.333746
vt 0.143421 0.435139
vt 0.244814 0.435139
vt 0.346207 0.029567
vt 0.346207 0.130960
vt 0.042028 0.029567
vt 0.042028 0.130960
vn 0.000000 0.000000 1.000000
vn 0.000000 0.000000 1.000000
vn 0.000000 0.000000 1.000000
vn 0.000000 0.000000 1.000000
vn 0.000000 1.000000 0.000000
vn 0.000000 1.000000 0.000000
vn 0.000000 1.000000 0.000000
vn 0.000000 1.000000 0.000000
vn 0.000000 0.000000 -1.000000
vn 0.000000 0.000000 -1.000000
vn 0.000000 0.000000 -1.000000
vn 0.000000 0.000000 -1.000000
vn 0.000000 -1.000000 0.000000
vn 0.000000 -1.000000 0.000000
vn 0.000000 -1.000000 0.000000
vn 0.000000 -1.000000 0.000000
vn 1.000000 0.000000 0.000000
vn 1.000000 0.000000 0.000000
vn 1.000000 0.000000 0.000000
vn 1.000000 0.000000 0.000000
vn -1.000000 0.000000 0.000000
vn -1.000000 0.000000 0.000000
vn -1.000000 0.000000 0.000000
vn -1.000000 0.000000 0.000000
s off
g pCube1
usemtl lambert3SG
f 1/1/1 2/2/2 4/4/3 3/3/4
f 3/3/5 4/4/6 6/6/7 5/5/8
f 5/5/9 6/6/10 8/8/11 7/7/12
f 7/7/13 8/8/14 2/10/15 1/9/16
f 2/2/17 8/11/18 6/12/19 4/4/20
f 7/13/21 1/1/22 3/3/23 5/14/24
g default
v -1.388889 -1.122000 2.694090
v -0.611111 -1.122000 2.694090
v -1.388889 1.122000 2.694090
v -0.611111 1.122000 2.694090
vt 0.854162 0.858841
vt 0.958841 0.858841
vt 0.854162 0.963520
vt 0.958841 0.963520
vn 0.000000 0.000000 1.000000
vn 0.000000 0.000000 1.000000
vn 0.000000 0.000000 1.000000
vn 0.000000 0.000000 1.000000
s off
g pPlane1
usemtl lambert3SG
f 9/15/25 10/16/26 12/18/27 11/17/28
g default
v 0.611111 -1.122000 2.694090
v 1.388889 -1.122000 2.694090
v 0.611111 1.122000 2.694090
v 1.388889 1.122000 2.694090
vt 0.854162 0.716666
vt 0.958841 0.716666
vt 0.854162 0.821344
vt 0.958841 0.821344
vn 0.000000 0.000000 1.000000
vn 0.000000 0.000000 1.000000
vn 0.000000 0.000000 1.000000
vn 0.000000 0.000000 1.000000
s off
g pPlane2
usemtl lambert3SG
f 13/19/29 14/20/30 16/22/31 15/21/32
g default
v -0.011893 0.500000 -2.515570
v 0.988107 0.500000 -2.515570
v -0.011893 -0.500000 -2.515570
v 0.988107 -0.500000 -2.515570
vt 0.000000 0.000000
vt 1.000000 0.000000
vt 0.000000 1.000000
vt 1.000000 1.000000
vn 0.000000 0.000000 -1.000000
vn 0.000000 0.000000 -1.000000
vn 0.000000 0.000000 -1.000000
vn 0.000000 0.000000 -1.000000
s off
g pPlane3
usemtl initialShadingGroup
f 17/23/33 18/24/34 20/26/35 19/25/36
g default
v 2.216647 -11.366584 3.219944
v -2.216645 -11.366584 3.219943
v -4.433292 -11.366584 7.059287
v -2.216646 -11.366584 10.898631
v 2.216646 -11.366584 10.898631
v 4.433292 -11.366584 7.059287
v 2.216647 -2.500000 3.219944
v -2.216645 -2.500000 3.219943
v -4.433292 -2.500000 7.059287
v -2.216646 -2.500000 10.898631
v 2.216646 -2.500000 10.898631
v 4.433292 -2.500000 7.059287
vt 0.375000 0.312500
vt 0.416667 0.312500
vt 0.458333 0.312500
vt 0.500000 0.312500
vt 0.541667 0.312500
vt 0.583333 0.312500
vt 0.625000 0.312500
vt 0.375000 0.688440
vt 0.416667 0.688440
vt 0.458333 0.688440
vt 0.500000 0.688440
vt 0.541667 0.688440
vt 0.583333 0.688440
vt 0.625000 0.688440
vn -0.000000 0.000000 1.000000
vn -0.000000 0.000000 1.000000
vn -0.000000 0.000000 1.000000
vn -0.000000 0.000000 1.000000
vn 0.866025 0.000000 0.500000
vn 0.866025 0.000000 0.500000
vn 0.866025 0.000000 0.500000
vn 0.866025 0.000000 0.500000
vn 0.866026 0.000000 -0.500000
vn 0.866026 0.000000 -0.500000
vn 0.866026 0.000000 -0.500000
vn 0.866026 0.000000 -0.500000
vn 0.000000 0.000000 -1.000000
vn 0.000000 0.000000 -1.000000
vn 0.000000 0.000000 -1.000000
vn 0.000000 0.000000 -1.000000
vn -0.866025 0.000000 -0.500000
vn -0.866025 0.000000 -0.500000
vn -0.866025 0.000000 -0.500000
vn -0.866025 0.000000 -0.500000
vn -0.866026 0.000000 0.500000
vn -0.866026 0.000000 0.500000
vn -0.866026 0.000000 0.500000
vn -0.866026 0.000000 0.500000
vn 0.000000 1.000000 0.000000
vn 0.000000 1.000000 0.000000
vn 0.000000 1.000000 0.000000
vn 0.000000 1.000000 0.000000
vn 0.000000 1.000000 0.000000
vn 0.000000 1.000000 0.000000
s off
g pCylinder1
usemtl initialShadingGroup
f 21/27/37 27/34/38 28/35/39 22/28/40
f 22/28/41 28/35/42 29/36/43 23/29/44
f 23/29/45 29/36/46 30/37/47 24/30/48
f 24/30/49 30/37/50 31/38/51 25/31/52
f 25/31/53 31/38/54 32/39/55 26/32/56
f 26/32/57 32/39/58 27/40/59 21/33/60
f 22/28/61 23/29/62 24/30/63 25/31/64 26/32/65 21/27/66
