# This file uses centimeters as units for non-parametric coordinates.

mtllib yane.mtl
g default
v -2.500000 -2.500000 2.500000
v 2.500000 -2.500000 2.500000
v -2.500000 2.500000 2.500000
v 2.500000 2.500000 2.500000
v -2.500000 2.500000 -2.500000
v 2.500000 2.500000 -2.500000
v -2.500000 -2.500000 -2.500000
v 2.500000 -2.500000 -2.500000
vt 0.143421 0.029567
vt 0.244814 0.029567
vt 0.143421 0.130960
vt 0.244814 0.130960
vt 0.143421 0.232353
vt 0.244814 0.232353
vt 0.143421 0.333746
vt 0.244814 0.333746
vt 0.143421 0.435139
vt 0.244814 0.435139
vt 0.346207 0.029567
vt 0.346207 0.130960
vt 0.042028 0.029567
vt 0.042028 0.130960
vn 0.000000 0.000000 1.000000
vn 0.000000 0.000000 1.000000
vn 0.000000 0.000000 1.000000
vn 0.000000 0.000000 1.000000
vn 0.000000 1.000000 0.000000
vn 0.000000 1.000000 0.000000
vn 0.000000 1.000000 0.000000
vn 0.000000 1.000000 0.000000
vn 0.000000 0.000000 -1.000000
vn 0.000000 0.000000 -1.000000
vn 0.000000 0.000000 -1.000000
vn 0.000000 0.000000 -1.000000
vn 0.000000 -1.000000 0.000000
vn 0.000000 -1.000000 0.000000
vn 0.000000 -1.000000 0.000000
vn 0.000000 -1.000000 0.000000
vn 1.000000 0.000000 0.000000
vn 1.000000 0.000000 0.000000
vn 1.000000 0.000000 0.000000
vn 1.000000 0.000000 0.000000
vn -1.000000 0.000000 0.000000
vn -1.000000 0.000000 0.000000
vn -1.000000 0.000000 0.000000
vn -1.000000 0.000000 0.000000
s off
g pCube1
usemtl lambert3SG
f 1/1/1 2/2/2 4/4/3 3/3/4
f 3/3/5 4/4/6 6/6/7 5/5/8
f 5/5/9 6/6/10 8/8/11 7/7/12
f 7/7/13 8/8/14 2/10/15 1/9/16
f 2/2/17 8/11/18 6/12/19 4/4/20
f 7/13/21 1/1/22 3/3/23 5/14/24
g default
v -1.388889 -1.058025 2.694090
v -0.611111 -1.058025 2.694090
v -1.388889 1.058025 2.694090
v -0.611111 1.058025 2.694090
vt 0.854162 0.858841
vt 0.958841 0.858841
vt 0.854162 0.963520
vt 0.958841 0.963520
vn 0.000000 0.000000 1.000000
vn 0.000000 0.000000 1.000000
vn 0.000000 0.000000 1.000000
vn 0.000000 0.000000 1.000000
s off
g pPlane1
usemtl lambert3SG
f 9/15/25 10/16/26 12/18/27 11/17/28
g default
v 0.611111 -1.058025 2.694090
v 1.388889 -1.058025 2.694090
v 0.611111 1.058025 2.694090
v 1.388889 1.058025 2.694090
vt 0.854162 0.716666
vt 0.958841 0.716666
vt 0.854162 0.821344
vt 0.958841 0.821344
vn 0.000000 0.000000 1.000000
vn 0.000000 0.000000 1.000000
vn 0.000000 0.000000 1.000000
vn 0.000000 0.000000 1.000000
s off
g pPlane2
usemtl lambert3SG
f 13/19/29 14/20/30 16/22/31 15/21/32
g default
v -0.204548 0.500000 -2.515570
v 0.795452 0.500000 -2.515570
v -0.204548 -0.500000 -2.515570
v 0.795452 -0.500000 -2.515570
vt 0.000000 0.000000
vt 1.000000 0.000000
vt 0.000000 1.000000
vt 1.000000 1.000000
vn 0.000000 0.000000 -1.000000
vn 0.000000 0.000000 -1.000000
vn 0.000000 0.000000 -1.000000
vn 0.000000 0.000000 -1.000000
s off
g pPlane3
usemtl initialShadingGroup
f 17/23/33 18/24/34 20/26/35 19/25/36
g default
v -2.201435 2.764729 3.000000
v -2.627349 2.407345 3.000000
v -2.627349 2.407345 -3.000000
v -2.201435 2.764729 -3.000000
v -2.949272 2.790998 3.000000
v -2.523359 3.148382 3.000000
v -2.523359 3.148382 -3.000000
v -2.949272 2.790998 -3.000000
v -0.497779 4.194265 -3.000000
v -0.923694 3.836881 -3.000000
v -1.245617 4.220534 -3.000000
v -0.819703 4.577919 -3.000000
v -3.479177 1.692576 3.000000
v -3.801100 2.076230 3.000000
v -4.227015 1.718845 3.000000
v -3.905091 1.335192 3.000000
v -1.775521 3.122113 3.000000
v -1.775521 3.122113 -3.000000
v -2.097445 3.505766 3.000000
v -2.097445 3.505766 -3.000000
v -0.071866 4.551649 -3.000000
v -0.393789 4.935302 -3.000000
v -0.000000 5.265731 -3.000000
v 0.000000 5.265731 -3.000000
v 0.185000 5.110497 -3.000000
v -3.053263 2.049960 3.000000
v -3.375186 2.433614 3.000000
v -1.349607 3.479497 3.000000
v -1.349607 3.479497 -3.000000
v -1.671531 3.863151 3.000000
v -1.671531 3.863151 -3.000000
v -0.393789 4.935302 -3.000000
v 0.000000 5.265731 -3.000000
v 0.393789 4.935302 -3.000000
v 0.071866 4.551649 -3.000000
v 0.819703 4.577919 -3.000000
v 0.497779 4.194265 -3.000000
v 1.245617 4.220534 -3.000000
v 0.923694 3.836881 -3.000000
v 1.671531 3.863151 -3.000000
v 1.349607 3.479497 -3.000000
v 2.097445 3.505766 -3.000000
v 1.775521 3.122113 -3.000000
v 2.523359 3.148382 -3.000000
v 2.201435 2.764729 -3.000000
v 2.949272 2.790998 -3.000000
v 2.627349 2.407345 -3.000000
v 3.375186 2.433614 -3.000000
v 3.053263 2.049960 -3.000000
v 3.801100 2.076230 -3.000000
v 3.479177 1.692576 -3.000000
v -0.923694 3.836881 3.000000
v 0.000000 4.611951 -3.000000
v -0.184999 5.110498 -3.000000
v -0.393789 4.935302 -3.000000
v 4.227015 1.718845 -3.000000
v 3.905091 1.335192 -3.000000
v -1.245617 4.220534 3.000000
v -0.497779 4.194265 3.000000
v -0.819703 4.577919 3.000000
v -0.071866 4.551649 3.000000
v -0.393789 4.935302 3.000000
v 0.000000 5.265731 3.000000
v -0.000000 5.265731 3.000000
v -0.185000 5.110497 3.000000
v 0.497779 4.194265 3.000000
v 0.071866 4.551649 3.000000
v 0.923694 3.836881 3.000000
v 1.349607 3.479497 3.000000
v 1.775521 3.122113 3.000000
v 2.201435 2.764729 3.000000
v 2.627349 2.407345 3.000000
v 3.053263 2.049960 3.000000
v 3.479177 1.692576 3.000000
v 3.905091 1.335192 3.000000
v 0.393789 4.935302 3.000000
v 0.819703 4.577919 3.000000
v 1.245617 4.220534 3.000000
v 1.671531 3.863151 3.000000
v 2.097445 3.505766 3.000000
v 4.227015 1.718845 3.000000
v 2.523359 3.148382 3.000000
v 2.949272 2.790998 3.000000
v 3.375186 2.433614 3.000000
v 3.801100 2.076230 3.000000
v 0.393789 4.935302 3.000000
v -0.000000 5.265731 3.000000
v -0.000000 4.611951 3.000000
v 0.184999 5.110498 3.000000
v 0.393789 4.935302 3.000000
v -3.375186 2.433614 -3.000000
v -3.053263 2.049960 -3.000000
v -3.801100 2.076230 -3.000000
v -3.479177 1.692576 -3.000000
v -4.227015 1.718845 -3.000000
v -3.905091 1.335192 -3.000000
vt 0.600000 0.000000
vt 0.700000 0.000000
vt 0.700000 0.000000
vt 0.600000 0.000000
vt 0.700000 0.100000
vt 0.600000 0.100000
vt 0.600000 0.100000
vt 0.700000 0.100000
vt 0.200000 0.000000
vt 0.300000 0.000000
vt 0.300000 0.100000
vt 0.200000 0.100000
vt 0.900000 0.000000
vt 0.900000 0.100000
vt 1.000000 0.100000
vt 1.000000 0.000000
vt 0.500000 0.000000
vt 0.500000 0.000000
vt 0.500000 0.100000
vt 0.500000 0.100000
vt 0.100000 0.000000
vt 0.100000 0.100000
vt 0.007543 0.100000
vt 0.000000 0.100000
vt 0.000000 0.052512
vt 0.800000 0.000000
vt 0.800000 0.100000
vt 0.400000 0.000000
vt 0.400000 0.000000
vt 0.400000 0.100000
vt 0.400000 0.100000
vt 0.000000 0.000000
vt 0.000000 0.100000
vt 0.100000 0.100000
vt 0.100000 0.000000
vt 0.200000 0.100000
vt 0.200000 0.000000
vt 0.300000 0.100000
vt 0.300000 0.000000
vt 0.400000 0.100000
vt 0.400000 0.000000
vt 0.500000 0.100000
vt 0.500000 0.000000
vt 0.600000 0.100000
vt 0.600000 0.000000
vt 0.700000 0.100000
vt 0.700000 0.000000
vt 0.800000 0.100000
vt 0.800000 0.000000
vt 0.900000 0.100000
vt 0.900000 0.000000
vt 0.300000 0.000000
vt 0.083127 0.000000
vt 0.050978 0.100000
vt 0.097562 0.090881
vt 1.000000 0.100000
vt 1.000000 0.000000
vt 0.300000 0.100000
vt 0.200000 0.000000
vt 0.200000 0.100000
vt 0.100000 0.000000
vt 0.100000 0.100000
vt 0.007543 0.100000
vt 0.000000 0.100000
vt 0.000000 0.052512
vt 0.200000 0.000000
vt 0.100000 0.000000
vt 0.300000 0.000000
vt 0.400000 0.000000
vt 0.500000 0.000000
vt 0.600000 0.000000
vt 0.700000 0.000000
vt 0.800000 0.000000
vt 0.900000 0.000000
vt 1.000000 0.000000
vt 0.100000 0.100000
vt 0.200000 0.100000
vt 0.300000 0.100000
vt 0.400000 0.100000
vt 0.500000 0.100000
vt 1.000000 0.100000
vt 0.600000 0.100000
vt 0.700000 0.100000
vt 0.800000 0.100000
vt 0.900000 0.100000
vt 0.000000 0.000000
vt 0.000000 0.100000
vt 0.083127 0.000000
vt 0.000000 0.000000
vt 0.000000 0.052512
vt 0.050978 0.100000
vt 0.097562 0.090881
vt 0.000000 0.000000
vt 0.000000 0.052512
vt 0.050979 0.100000
vt 0.050979 0.100000
vt 0.800000 0.100000
vt 0.800000 0.000000
vt 0.900000 0.100000
vt 0.900000 0.000000
vt 1.000000 0.100000
vt 1.000000 0.000000
vn 0.642788 -0.766045 0.000000
vn 0.642788 -0.766044 0.000000
vn 0.642788 -0.766044 0.000000
vn 0.642788 -0.766045 0.000000
vn -0.642788 0.766044 0.000000
vn -0.642788 0.766044 0.000000
vn -0.642788 0.766044 0.000000
vn -0.642788 0.766044 0.000000
vn 0.000000 0.000000 -1.000000
vn 0.000000 0.000000 -1.000000
vn 0.000000 0.000000 -1.000000
vn 0.000000 0.000000 -1.000000
vn 0.000000 0.000000 1.000000
vn 0.000000 0.000000 1.000000
vn 0.000000 0.000000 1.000000
vn 0.000000 0.000000 1.000000
vn 0.642788 -0.766044 0.000000
vn 0.642788 -0.766044 0.000000
vn -0.642788 0.766045 0.000000
vn -0.642788 0.766045 0.000000
vn 0.000000 0.000000 -1.000000
vn 0.000000 0.000000 -1.000000
vn 0.000000 0.000000 0.000000
vn 0.000000 0.000000 0.000000
vn 0.000000 0.000000 0.000000
vn 0.000000 0.000000 1.000000
vn 0.000000 0.000000 1.000000
vn 0.642788 -0.766044 0.000000
vn 0.642788 -0.766044 0.000000
vn -0.642788 0.766044 0.000000
vn -0.642788 0.766044 0.000000
vn -0.000001 -0.000000 -1.000000
vn -0.000001 -0.000000 -1.000000
vn -0.000000 -0.000000 -1.000000
vn -0.000000 -0.000000 -1.000000
vn 0.000000 0.000000 -1.000000
vn 0.000000 0.000000 -1.000000
vn 0.000000 0.000000 -1.000000
vn 0.000000 0.000000 -1.000000
vn 0.000000 0.000000 -1.000000
vn 0.000000 0.000000 -1.000000
vn 0.000000 0.000000 -1.000000
vn 0.000000 0.000000 -1.000000
vn 0.000000 0.000000 -1.000000
vn 0.000000 0.000000 -1.000000
vn 0.000000 0.000000 -1.000000
vn 0.000000 0.000000 -1.000000
vn 0.000000 0.000000 1.000000
vn 0.000000 0.000000 1.000000
vn 0.000000 0.000000 -1.000000
vn 0.000000 0.000000 -1.000000
vn 0.000000 0.000000 -1.000000
vn 0.000000 0.000000 -1.000000
vn 0.642788 -0.766045 0.000000
vn 0.642788 -0.766045 0.000000
vn 0.000000 0.000001 -1.000000
vn 0.000000 0.000000 -0.000000
vn 0.000000 0.000001 -1.000000
vn 0.000000 0.000000 -1.000000
vn 0.000000 0.000000 -1.000000
vn -0.642788 0.766044 0.000000
vn -0.642788 0.766044 0.000000
vn 0.000000 0.000000 1.000000
vn 0.000000 0.000000 1.000000
vn 0.642787 -0.766045 0.000000
vn 0.642787 -0.766045 0.000000
vn -0.642787 0.766045 0.000000
vn -0.642787 0.766045 0.000000
vn 0.000000 0.000000 1.000000
vn 0.000000 0.000000 1.000000
vn 0.642787 -0.766045 -0.000065
vn 0.642787 -0.766045 -0.000065
vn -0.642787 0.766045 0.000000
vn -0.642787 0.766045 0.000000
vn 0.000000 0.000000 0.000000
vn 0.000000 0.000000 0.000000
vn 0.000000 0.000000 0.000000
vn -0.642787 -0.766045 0.000065
vn -0.642787 -0.766045 0.000000
vn -0.642787 -0.766045 0.000000
vn -0.642787 -0.766045 0.000065
vn -0.642788 -0.766045 0.000000
vn -0.642788 -0.766045 0.000000
vn 0.000000 0.000000 1.000000
vn 0.000000 0.000000 1.000000
vn -0.642788 -0.766044 0.000000
vn -0.642788 -0.766044 0.000000
vn -0.642788 -0.766044 0.000000
vn -0.642788 -0.766044 0.000000
vn -0.642788 -0.766045 0.000000
vn -0.642788 -0.766045 0.000000
vn -0.642788 -0.766044 0.000000
vn -0.642788 -0.766044 0.000000
vn -0.642788 -0.766044 0.000000
vn -0.642788 -0.766044 0.000000
vn -0.642787 -0.766045 0.000000
vn -0.642787 -0.766045 0.000000
vn -0.642787 -0.766045 0.000000
vn -0.642787 -0.766045 0.000000
vn 0.642787 0.766045 0.000000
vn 0.642787 0.766045 -0.000000
vn 0.642787 0.766045 -0.000000
vn 0.642787 0.766045 0.000000
vn 0.642788 0.766044 0.000000
vn 0.642788 0.766044 0.000000
vn 0.642788 0.766044 0.000000
vn 0.642788 0.766044 0.000000
vn 0.000000 0.000000 1.000000
vn 0.000000 0.000000 1.000000
vn 0.642788 0.766045 0.000000
vn 0.642788 0.766045 0.000000
vn 0.766044 -0.642788 0.000000
vn 0.766044 -0.642788 0.000000
vn 0.766044 -0.642788 0.000000
vn 0.766044 -0.642788 0.000000
vn 0.642788 0.766044 0.000000
vn 0.642788 0.766044 0.000000
vn 0.642788 0.766044 0.000000
vn 0.642788 0.766044 0.000000
vn 0.642787 0.766045 0.000000
vn 0.642787 0.766045 0.000000
vn 0.642787 0.766045 0.000000
vn 0.642787 0.766045 0.000000
vn 0.642788 0.766044 0.000000
vn 0.642788 0.766044 0.000000
vn 0.000000 0.000000 1.000000
vn 0.000000 0.000000 1.000000
vn 0.000000 -0.000000 1.000000
vn 0.000000 -0.000000 1.000000
vn 0.000001 -0.000000 1.000000
vn 0.000001 -0.000000 1.000000
vn 0.000000 0.000000 1.000000
vn 0.000000 0.000000 1.000000
vn 0.000000 0.000000 1.000000
vn 0.000000 0.000000 1.000000
vn 0.000000 0.000000 1.000000
vn 0.000000 0.000000 1.000000
vn -0.642787 -0.766045 0.000452
vn -0.642787 -0.766045 0.000452
vn -0.642787 -0.766045 0.000452
vn -0.642787 -0.766045 0.000452
vn 0.000000 0.000000 1.000000
vn 0.000000 0.000000 1.000000
vn 0.000000 0.000000 1.000000
vn 0.000000 0.000000 1.000000
vn 0.000000 0.000000 1.000000
vn 0.000000 0.000000 1.000000
vn 0.000000 0.000000 1.000000
vn 0.000000 0.000000 1.000000
vn 0.000000 0.000000 1.000000
vn 0.000000 0.000000 1.000000
vn 0.000000 0.000000 1.000000
vn 0.000000 0.000000 1.000000
vn 0.000000 0.000000 1.000000
vn 0.000000 0.000000 1.000000
vn -0.642788 0.766044 -0.000000
vn -0.642788 0.766044 -0.000000
vn -0.642788 0.766044 -0.000000
vn -0.642788 0.766044 -0.000000
vn -0.642788 0.766044 -0.000000
vn -0.642788 0.766044 -0.000000
vn 0.000000 0.000001 1.000000
vn 0.000000 0.000000 0.000000
vn 0.000000 0.000001 1.000000
vn 0.642787 -0.766045 -0.000452
vn 0.642787 -0.766045 -0.000452
vn 0.642787 -0.766045 -0.000452
vn 0.642787 -0.766045 -0.000452
vn 0.642788 0.766044 0.000000
vn 0.642788 0.766044 0.000000
vn 0.642788 0.766044 0.000000
vn 0.642788 0.766044 0.000000
vn 0.642788 0.766044 0.000000
vn 0.642788 0.766044 0.000000
vn -0.642788 0.766044 0.000000
vn -0.642788 0.766044 0.000000
vn -0.642788 0.766044 0.000000
vn -0.642788 0.766044 0.000000
vn 0.642788 0.766044 -0.000000
vn 0.642788 0.766044 -0.000000
vn 0.642788 0.766044 -0.000000
vn 0.642788 0.766044 -0.000000
vn 0.000000 0.000000 -1.000000
vn 0.000000 0.000000 -1.000000
vn -0.642787 0.766045 0.000000
vn -0.642787 0.766045 0.000000
vn 0.642788 -0.766044 0.000000
vn 0.642788 -0.766044 0.000000
vn 0.000000 0.000000 -1.000000
vn 0.000000 0.000000 -1.000000
vn -0.642787 0.766045 0.000000
vn -0.642787 0.766045 0.000000
vn 0.642787 -0.766045 0.000000
vn 0.642787 -0.766045 0.000000
vn 0.000000 0.000000 -1.000000
vn 0.000000 0.000000 -1.000000
vn -0.642788 0.766044 0.000000
vn -0.642788 0.766044 0.000000
vn 0.642787 -0.766045 0.000000
vn 0.642787 -0.766045 0.000000
vn -0.766044 -0.642788 0.000000
vn -0.766044 -0.642788 0.000000
vn -0.766044 -0.642788 0.000000
vn -0.766044 -0.642788 0.000000
vn 0.000000 0.000000 -1.000000
vn 0.000000 0.000000 -1.000000
vn 0.000000 0.000000 -1.000000
vn 0.000000 0.000000 -1.000000
vn 0.000000 0.000000 -1.000000
vn 0.000000 0.000000 -1.000000
vn 0.000000 0.000000 -1.000000
vn 0.000000 0.000000 -1.000000
s 1
g pPlane6
usemtl initialShadingGroup
f 21/27/37 22/28/38 23/29/39 24/30/40
s 2
f 25/31/41 26/32/42 27/33/43 28/34/44
s 3
f 29/35/45 30/36/46 31/37/47 32/38/48
s 4
f 33/39/49 34/40/50 35/41/51 36/42/52
s 1
f 37/43/53 21/27/37 24/30/40 38/44/54
s 2
f 26/32/42 39/45/55 40/46/56 27/33/43
s 3
f 41/47/57 29/35/45 32/38/48 42/48/58
s off
f 43/49/59 44/50/60 45/51/61
s 4
f 46/52/62 47/53/63 34/40/50 33/39/49
s 1
f 48/54/64 37/43/53 38/44/54 49/55/65
s 2
f 39/45/55 50/56/66 51/57/67 40/46/56
s 5
f 52/58/68 53/59/69 54/60/70 55/61/71
f 55/61/71 54/60/70 56/62/72 57/63/73
f 57/63/73 56/62/72 58/64/74 59/65/75
f 59/65/75 58/64/74 60/66/76 61/67/77
f 61/67/77 60/66/76 62/68/78 63/69/79
f 63/69/79 62/68/78 64/70/80 65/71/81
f 65/71/81 64/70/80 66/72/82 67/73/83
s 4
f 22/28/84 25/31/85 47/53/63 46/52/62
s 5
f 67/73/83 66/72/82 68/74/86 69/75/87
f 69/75/87 68/74/86 70/76/88 71/77/89
s 1
f 72/78/90 48/54/64 49/55/65 30/36/91
s 3
f 73/79/92 41/47/57 42/48/58 74/80/93 75/81/94
s 5
f 71/77/89 70/76/88 76/82/95 77/83/96
s 2
f 50/56/66 78/84/97 31/37/98 51/57/67
s 4
f 21/27/99 26/32/100 25/31/85 22/28/84
s 1
f 79/85/101 72/78/90 30/36/91 29/35/102
s 2
f 78/84/97 80/86/103 32/38/104 31/37/98
s 4
f 37/43/105 39/45/106 26/32/100 21/27/99
s 1
f 81/87/107 79/85/101 29/35/102 41/47/108
s 2
f 80/86/103 82/88/109 42/48/110 32/38/104
s off
f 83/89/111 84/90/112 85/91/113
s 6
f 55/61/114 57/63/115 86/92/116 87/93/117
f 57/63/115 59/65/118 88/94/119 86/92/116
s 4
f 48/54/120 50/56/121 39/45/106 37/43/105
s 6
f 59/65/118 61/67/122 89/95/123 88/94/119
f 61/67/122 63/69/124 90/96/125 89/95/123
f 63/69/124 65/71/126 91/97/127 90/96/125
f 65/71/126 67/73/128 92/98/129 91/97/127
f 67/73/128 69/75/130 93/99/131 92/98/129
f 69/75/130 71/77/132 94/100/133 93/99/131
f 71/77/132 77/83/134 95/101/135 94/100/133
s 7
f 56/62/136 54/60/137 96/102/138 97/103/139
f 58/64/140 56/62/136 97/103/139 98/104/141
f 60/66/142 58/64/140 98/104/141 99/105/143
s 4
f 72/78/144 78/84/145 50/56/121 48/54/120
s 7
f 62/68/146 60/66/142 99/105/143 100/106/147
s off
f 77/83/148 76/82/149 101/107/150 95/101/151
s 7
f 64/70/152 62/68/146 100/106/147 102/108/153
f 66/72/154 64/70/152 102/108/153 103/109/155
f 68/74/156 66/72/154 103/109/155 104/110/157
f 70/76/158 68/74/156 104/110/157 105/111/159
f 76/82/160 70/76/158 105/111/159 101/107/161
s 4
f 79/85/162 80/86/163 78/84/145 72/78/144
f 81/87/164 82/88/165 80/86/163 79/85/162
f 106/112/166 107/113/167 82/88/165 81/87/164
s 8
f 87/93/168 86/92/169 97/103/170 96/102/171
f 86/92/169 88/94/172 98/104/173 97/103/170
s 6
f 52/58/174 55/61/114 87/93/117 108/114/175 73/79/176 75/115/177
s 8
f 88/94/172 89/95/178 99/105/179 98/104/173
f 89/95/178 90/96/180 100/106/181 99/105/179
f 90/96/180 91/97/182 102/108/183 100/106/181
f 91/97/182 92/98/184 103/109/185 102/108/183
f 92/98/184 93/99/186 104/110/187 103/109/185
f 93/99/186 94/100/188 105/111/189 104/110/187
f 94/100/188 95/101/190 101/107/191 105/111/189
s 2
f 53/59/192 52/58/193 75/115/194 74/116/195 85/91/196 84/90/197
s 8
f 108/114/198 87/93/168 96/102/171 109/117/199 110/118/200
s 1
f 106/112/201 81/87/107 41/47/108 73/79/202 108/114/203 110/119/204
s 7
f 107/113/205 106/112/206 110/119/207 109/120/208 45/51/209 44/50/210
s 2
f 82/88/109 107/113/211 44/50/212 43/49/213 83/89/214 85/121/196 74/80/195 42/48/110
s 7
f 54/60/137 53/59/215 84/90/216 83/89/217 43/49/218 45/122/209 109/117/208 96/102/138
s 3
f 30/36/46 49/55/219 51/57/220 31/37/47
s 2
f 47/53/221 25/31/41 28/34/44 111/123/222
s 1
f 22/28/38 46/52/223 112/124/224 23/29/39
s 3
f 49/55/219 38/44/225 40/46/226 51/57/220
s 2
f 34/40/227 47/53/221 111/123/222 113/125/228
s 1
f 46/52/223 33/39/229 114/126/230 112/124/224
s 3
f 38/44/225 24/30/231 27/33/232 40/46/226
s 2
f 35/41/233 34/40/227 113/125/228 115/127/234
s 1
f 33/39/229 36/42/235 116/128/236 114/126/230
s off
f 36/42/237 35/41/238 115/127/239 116/128/240
s 3
f 24/30/231 23/29/241 28/34/242 27/33/232
f 23/29/241 112/124/243 111/123/244 28/34/242
f 112/124/243 114/126/245 113/125/246 111/123/244
f 114/126/245 116/128/247 115/127/248 113/125/246
g default
v 1.354996 3.683573 0.652168
v 2.659332 2.958548 0.652168
v 1.354996 5.265731 0.652168
v 2.659332 5.265731 0.652168
v 1.354996 5.265731 -0.652168
v 2.659332 5.265731 -0.652168
v 1.354996 3.683573 -0.652168
v 2.659332 2.958548 -0.652168
vt 0.375000 0.000000
vt 0.625000 0.000000
vt 0.375000 0.250000
vt 0.625000 0.250000
vt 0.375000 0.500000
vt 0.625000 0.500000
vt 0.375000 0.750000
vt 0.625000 0.750000
vt 0.375000 1.000000
vt 0.625000 1.000000
vt 0.875000 0.000000
vt 0.875000 0.250000
vt 0.125000 0.000000
vt 0.125000 0.250000
vn 0.000000 0.000000 1.000000
vn 0.000000 0.000000 1.000000
vn 0.000000 0.000000 1.000000
vn 0.000000 0.000000 1.000000
vn 0.000000 1.000000 0.000000
vn 0.000000 1.000000 0.000000
vn 0.000000 1.000000 0.000000
vn 0.000000 1.000000 0.000000
vn 0.000000 0.000000 -1.000000
vn 0.000000 0.000000 -1.000000
vn 0.000000 0.000000 -1.000000
vn 0.000000 0.000000 -1.000000
vn -0.485845 -0.874045 0.000000
vn -0.485845 -0.874045 0.000000
vn -0.485845 -0.874045 0.000000
vn -0.485845 -0.874045 0.000000
vn 1.000000 0.000000 0.000000
vn 1.000000 0.000000 0.000000
vn 1.000000 0.000000 0.000000
vn 1.000000 0.000000 0.000000
vn -1.000000 0.000000 0.000000
vn -1.000000 0.000000 0.000000
vn -1.000000 0.000000 0.000000
vn -1.000000 0.000000 0.000000
s off
g pCube2
usemtl initialShadingGroup
f 117/129/249 118/130/250 120/132/251 119/131/252
f 119/131/253 120/132/254 122/134/255 121/133/256
f 121/133/257 122/134/258 124/136/259 123/135/260
f 123/135/261 124/136/262 118/138/263 117/137/264
f 118/130/265 124/139/266 122/140/267 120/132/268
f 123/141/269 117/129/270 119/131/271 121/142/272
